<?xml version="1.0" encoding="UTF-8" standalone="no"?>
<!-- Created with Inkscape (http://www.inkscape.org/) -->

<svg
   xmlns:dc="http://purl.org/dc/elements/1.1/"
   xmlns:cc="http://creativecommons.org/ns#"
   xmlns:rdf="http://www.w3.org/1999/02/22-rdf-syntax-ns#"
   xmlns:svg="http://www.w3.org/2000/svg"
   xmlns="http://www.w3.org/2000/svg"
   xmlns:xlink="http://www.w3.org/1999/xlink"
   xmlns:sodipodi="http://sodipodi.sourceforge.net/DTD/sodipodi-0.dtd"
   xmlns:inkscape="http://www.inkscape.org/namespaces/inkscape"
   id="svg4112"
   xml:space="preserve"
   viewBox="0 0 765 990"
   version="1.1"
   inkscape:version="0.48.5 r10040"
   width="100%"
   height="100%"
   sodipodi:docname="try.svg"><sodipodi:namedview
     pagecolor="#ffffff"
     bordercolor="#666666"
     borderopacity="1"
     objecttolerance="10"
     gridtolerance="10"
     guidetolerance="10"
     inkscape:pageopacity="0"
     inkscape:pageshadow="2"
     inkscape:window-width="1920"
     inkscape:window-height="1017"
     id="namedview4187"
     showgrid="false"
     inkscape:zoom="0.23838384"
     inkscape:cx="382.5"
     inkscape:cy="495"
     inkscape:window-x="1912"
     inkscape:window-y="26"
     inkscape:window-maximized="1"
     inkscape:current-layer="svg4112" /><metadata
     id="metadata4118"><rdf:RDF><cc:Work
         rdf:about=""><dc:format>image/svg+xml</dc:format><dc:type
           rdf:resource="http://purl.org/dc/dcmitype/StillImage" /><dc:title /></cc:Work></rdf:RDF></metadata><defs
     id="defs4116"><clipPath
       id="clipPath4126"
       clipPathUnits="userSpaceOnUse"><path
         id="path4128"
         d="M0,792,612,792,612,0,0,0,0,792z" /></clipPath></defs><a
     id="a4189"
     xlink:href="http://www.bing.com"><g
       transform="matrix(1.25,0,0,-1.25,-25.169492,948.05085)"
       id="g4120"><a
   xlink:href="http://google.com"
   id="a4144"><g
     id="g4122"><g
       clip-path="url(#clipPath4126)"
       id="g4124"><g
         transform="translate(328.5,473)"
         id="g4130"><path
           style="fill:#90c84b;fill-rule:nonzero"
           inkscape:connector-curvature="0"
           d="m 0,0 -231,0 c -11.322,0 -20.5,9.178 -20.5,20.5 v 178 c 0,11.322 9.178,20.5 20.5,20.5 H 0 c 11.322,0 20.5,-9.178 20.5,-20.5 V 20.5 C 20.5,9.178 11.322,0 0,0"
           id="path4132" /></g><g
         transform="translate(328.5,473)"
         id="g4134"><path
           style="fill:none;stroke:#373535;stroke-width:1;stroke-linecap:butt;stroke-linejoin:miter;stroke-miterlimit:10;stroke-dasharray:none"
           inkscape:connector-curvature="0"
           stroke-miterlimit="10"
           d="m 0,0 -231,0 c -11.322,0 -20.5,9.178 -20.5,20.5 v 178 c 0,11.322 9.178,20.5 20.5,20.5 H 0 c 11.322,0 20.5,-9.178 20.5,-20.5 V 20.5 C 20.5,9.178 11.322,0 0,0 z"
           id="path4136" /></g><path
         style="fill:#90c84b;fill-rule:nonzero;stroke:#373535;stroke-width:1;stroke-linecap:butt;stroke-linejoin:miter;stroke-miterlimit:10;stroke-dasharray:none"
         inkscape:connector-curvature="0"
         stroke-miterlimit="10"
         d="m 377,466 -314,0 0,237 314,0 0,-237 z"
         id="path4138" /></g></g></a><text
   transform="matrix(1,0,0,-1,139,379.4404)"
   id="text4140"><tspan
     font-weight="normal"
     x="0 19.98 38.015999 46.512001 55.007999"
     y="0"
     font-variant="normal"
     font-stretch="normal"
     font-size="36"
     style="font-size:36px;font-variant:normal;font-weight:normal;font-stretch:normal;writing-mode:lr-tb;fill:#373535;fill-rule:nonzero;font-family:Myriad Pro"
     id="tspan4142">hello</tspan></text>

</g></a></svg>