<svg id="ICONS" xmlns="http://www.w3.org/2000/svg" viewBox="0 0 400 140">
  <defs>
    <style>
      .cls-1, .cls-3, .cls-9 {
        fill: none;
      }

      .cls-2, .cls-8 {
        fill: #2bc7f4;
      }

      .cls-2, .cls-3, .cls-4 {
        fill-rule: evenodd;
      }

      .cls-3 {
        stroke: #fff;
      }

      .cls-13, .cls-3, .cls-9 {
        stroke-miterlimit: 10;
      }

      .cls-3, .cls-4 {
        opacity: 0.6;
      }

      .cls-10, .cls-13, .cls-4 {
        fill: #fff;
      }

      .cls-5 {
        fill: #d1d3d4;
      }

      .cls-6 {
        fill: #556a8a;
      }

      .cls-7 {
        fill: #80def9;
      }

      .cls-13, .cls-9 {
        stroke: #556a8a;
        stroke-width: 2px;
      }

      .cls-11 {
        fill: #e6e7e8;
      }

      .cls-12 {
        fill: #c6df33;
      }
    </style>
  </defs>
  <title>virtualization-containers-quick-start</title>
  <rect class="cls-1" x="5" y="5" width="142" height="137"/>
  <g>
    <g>
      <polygon class="cls-2" points="307.23 11.11 327.58 31 318 31 318 80 297 80 297 31 287 31 307.23 11.11 307.23 11.11 307.23 11.11"/>
      <polygon class="cls-3" points="300.5 31 300.5 31 300.5 80 300.5 62 300.5 31 300.5 31"/>
      <polygon class="cls-3" points="307.5 21 307.5 21 307.5 80 307.5 52 307.5 21 307.5 21"/>
      <polygon class="cls-3" points="311.5 42 311.5 42 311.5 80 311.5 73 311.5 42 311.5 42"/>
      <polygon class="cls-3" points="314.5 29 314.5 29 314.5 80 314.5 62 314.5 29 314.5 29"/>
      <polygon class="cls-4" points="300.5 27 304 31 297 31 300.5 27"/>
      <polygon class="cls-4" points="315.5 24 320 30 311 30 315.5 24"/>
    </g>
    <polygon class="cls-4" points="307.5 16 312 21 303 21 307.5 16"/>
    <polygon class="cls-4" points="311.5 36 316.5 42 306.5 42 311.5 36"/>
  </g>
  <path class="cls-5" d="M296.1,65.46a39.37,39.37,0,0,0-77.71-1.23,26.79,26.79,0,0,0-43,13.62A23.42,23.42,0,1,0,169.81,124H301.57C314.94,121.29,325,108.88,325,94.72A29.27,29.27,0,0,0,296.1,65.46Z"/>
  <polygon class="cls-6" points="137.19 116.75 131.44 116.75 132.4 103.33 136.23 103.33 137.19 116.75"/>
  <path class="cls-7" d="M186.56,24H82.44A7.42,7.42,0,0,0,75,31.35v64.3A7.42,7.42,0,0,0,82.44,103H186.56A7.42,7.42,0,0,0,194,95.65V31.35A7.42,7.42,0,0,0,186.56,24Z"/>
  <path class="cls-8" d="M194,31.35V43H75V31.35A7.42,7.42,0,0,1,82.44,24H186.56A7.42,7.42,0,0,1,194,31.35Z"/>
  <path class="cls-9" d="M186.56,24H82.44A7.42,7.42,0,0,0,75,31.35v64.3A7.42,7.42,0,0,0,82.44,103H186.56A7.42,7.42,0,0,0,194,95.65V31.35A7.42,7.42,0,0,0,186.56,24Z"/>
  <polygon class="cls-6" points="158.93 115 109.37 115 103.65 119 164.65 119 158.93 115"/>
  <g>
    <polygon class="cls-6" points="237.99 86.06 215.44 107 209 107 218.66 79.62 229.31 74.79 237.99 86.06"/>
    <polygon class="cls-6" points="256 86.06 278.55 107 284.99 107 275.33 79.62 264.68 74.79 256 86.06"/>
    <polygon class="cls-6" points="254 111 240 111 243 101 251 101 254 111"/>
    <path class="cls-10" d="M246.94,14S225.66,41.54,226,62.32c.36,21.65,11.17,35.29,11.27,35.43H256.6c.1-.14,10.92-13.78,11.27-35.43C268.22,41.54,246.94,14,246.94,14Z"/>
    <path class="cls-11" d="M267.28,63.08a62,62,0,0,1-10.63,34.3l-.24.34h-9.66l-.24-.34a62.15,62.15,0,0,1-10.63-34.3c-.11-6.62,2-14,5-20.92a131.36,131.36,0,0,1,10.69-19.62,131.36,131.36,0,0,1,10.69,19.62C265.23,49.11,267.39,56.47,267.28,63.08Z"/>
    <path class="cls-12" d="M231,42l.3-.7a142,142,0,0,1,14.52-25.24l1.07-1.46,1.06,1.45A142.08,142.08,0,0,1,262.46,41.3l.3.7Z"/>
    <path class="cls-9" d="M246.94,14.25S225.66,41.8,226,62.57c.36,21.65,11.17,35.29,11.27,35.43H256.6c.1-.14,10.92-13.78,11.27-35.43C268.22,41.8,246.94,14.25,246.94,14.25Z"/>
    <circle class="cls-13" cx="246.35" cy="54.24" r="8.05"/>
    <rect class="cls-6" x="239" y="99" width="16" height="3"/>
  </g>
  <g>
    <polygon class="cls-10" points="131 69 131 53.94 115 56 115 69 131 69"/>
    <polygon class="cls-10" points="133 68.99 154 69 154 51 133 53.7 133 68.99"/>
    <polygon class="cls-10" points="133 71 133 86.49 154 89.32 154 71 133 71"/>
    <polygon class="cls-10" points="131 71 115 71 115 84 131 86.23 131 71"/>
  </g>
</svg>
