<svg id="ICONS-64x" xmlns="http://www.w3.org/2000/svg" viewBox="0 0 64 64">
  <defs>
    <style>
      .cls-1 {
        fill: #fff;
        stroke: #556a8a;
      }

      .cls-1, .cls-3, .cls-4 {
        stroke-miterlimit: 10;
        stroke-width: 2px;
      }

      .cls-2 {
        fill: #2bc7f4;
      }

      .cls-3, .cls-4 {
        fill: none;
      }

      .cls-3 {
        stroke: #fff;
      }

      .cls-4 {
        stroke: #2bc7f4;
      }
    </style>
  </defs>
  <title>i_blog</title>
  <path class="cls-1" d="M55,1H5A4,4,0,0,0,1,5V42a4,4,0,0,0,4,4h5V57L21,46H59V5A4,4,0,0,0,55,1Z"/>
  <path class="cls-2" d="M61,27H33a3,3,0,0,0-3,3V51a3,3,0,0,0,3,3h3v8l8-8H61a3,3,0,0,0,3-3V30A3,3,0,0,0,61,27Z"/>
  <g>
    <circle class="cls-3" cx="48" cy="37" r="5"/>
    <path class="cls-3" d="M40,50a8,8,0,0,1,16,0"/>
  </g>
  <line class="cls-4" x1="7" y1="10" x2="26" y2="10"/>
  <line class="cls-4" x1="7" y1="16" x2="47" y2="16"/>
  <line class="cls-4" x1="7" y1="22" x2="47" y2="22"/>
</svg>
