<svg id="ICONS-64x" xmlns="http://www.w3.org/2000/svg" viewBox="0 0 64 64">
  <defs>
    <style>
      .cls-1 {
        fill: #fff;
      }

      .cls-2 {
        fill: #e5e5e5;
      }

      .cls-3, .cls-4 {
        fill: none;
      }

      .cls-3 {
        stroke: #556a8a;
        stroke-miterlimit: 10;
        stroke-width: 2px;
      }

      .cls-5 {
        fill: #2bc7f4;
      }
    </style>
  </defs>
  <title>i_feedback</title>
  <path class="cls-1" d="M59.13,6H4.88A3.88,3.88,0,0,0,1,9.86V47.49A3.59,3.59,0,0,0,4.88,51H13V62L24,51H58.81C60.94,51,63,49.61,63,47.49V9.86A3.88,3.88,0,0,0,59.13,6Z"/>
  <path class="cls-2" d="M63,10V32L37,6H59A4,4,0,0,1,63,10Z"/>
  <path class="cls-3" d="M59.13,6H4.88A3.88,3.88,0,0,0,1,9.86V47.49A3.59,3.59,0,0,0,4.88,51H13V62L24,51H58.81C60.94,51,63,49.61,63,47.49V9.86A3.88,3.88,0,0,0,59.13,6Z"/>
  <rect class="cls-4" width="64" height="64"/>
  <polygon class="cls-5" points="32 35.06 41.89 43 37.76 30.66 48 23.22 35.56 23.22 32 11 28.44 23.22 16 23.22 26.24 30.66 22.11 43 32 35.06"/>
</svg>
