<svg id="Icons" xmlns="http://www.w3.org/2000/svg" viewBox="0 0 64 64">
  <defs>
    <style>
      .cls-1 {
        fill: #326ce5;
      }

      .cls-2 {
        fill: #fff;
      }

      .cls-3 {
        fill: none;
        stroke: #fff;
        stroke-width: 0.2px;
      }
    </style>
  </defs>
  <title>logo_kubernetes</title>
  <g id="use4187">
    <path class="cls-1" d="M31.94,1.87a4.22,4.22,0,0,0-1.61.41L8.43,12.74a4.23,4.23,0,0,0-2.27,2.82L.76,39.07a4.18,4.18,0,0,0,.57,3.19q.11.17.24.33L16.72,61.44A4.27,4.27,0,0,0,20,63H44.31a4.27,4.27,0,0,0,3.28-1.56L62.74,42.58a4.19,4.19,0,0,0,.81-3.52L58.14,15.56a4.23,4.23,0,0,0-2.27-2.82L34,2.28A4.23,4.23,0,0,0,31.94,1.87Z"/>
    <path class="cls-2" d="M32.11,39.77a1.17,1.17,0,0,1,1.06.61h0l3.34,6q-.65.22-1.33.37a13.56,13.56,0,0,1-7.4-.38l3.33-6h0A1.16,1.16,0,0,1,32.11,39.77ZM26.39,37a1.16,1.16,0,0,1,1,1.61l0,0L24.84,45a13.57,13.57,0,0,1-5.45-6.82L26.16,37h0Zm11.47,0a1.13,1.13,0,0,1,.27,0h0L45,38.12A13.52,13.52,0,0,1,39.5,45l-2.65-6.4h0a1.16,1.16,0,0,1,1-1.61Zm-6.92-5.56h2.11L34.36,33l-.47,2L32,36l-1.9-.91-.47-2Zm12.76-5a13.75,13.75,0,0,1,2,8.52L39,33v0a1.16,1.16,0,0,1-.45-2h0Zm-23.14,0L25.71,31v0a1.16,1.16,0,0,1-.45,2v0l-6.6,1.9A13.5,13.5,0,0,1,20.56,26.39ZM33.8,20a13.62,13.62,0,0,1,7.85,3.79l-5.6,4h0a1.16,1.16,0,0,1-1.84-.88h0Zm-3.29,0-.39,6.88h0a1.16,1.16,0,0,1-1.83.89h0l-5.64-4a13.5,13.5,0,0,1,6.5-3.54A13.89,13.89,0,0,1,30.51,20ZM32.15,9.87a1.39,1.39,0,0,0-1.31,1.46s0,0,0,0,0,.24,0,.34A10.92,10.92,0,0,0,31,12.95a12.26,12.26,0,0,1,.15,2.38,1.43,1.43,0,0,1-.43.68l0,.55a17.09,17.09,0,0,0-2.37.36,16.86,16.86,0,0,0-8.57,4.89l-.47-.34a1,1,0,0,1-.78-.08,12.25,12.25,0,0,1-1.77-1.6,11,11,0,0,0-.86-.92l-.29-.23a1.56,1.56,0,0,0-.91-.34,1.26,1.26,0,0,0-1,.46A1.39,1.39,0,0,0,14,20.71h0l.27.22a11,11,0,0,0,1.09.64,12.22,12.22,0,0,1,2,1.37,1.46,1.46,0,0,1,.26.76l.42.38A17,17,0,0,0,15.3,35.91l-.55.16a1.82,1.82,0,0,1-.56.57,12.25,12.25,0,0,1-2.35.39,11,11,0,0,0-1.26.1l-.35.08h0a1.32,1.32,0,1,0,.58,2.55h0l.34-.08a11,11,0,0,0,1.18-.45,12.3,12.3,0,0,1,2.29-.67,1.45,1.45,0,0,1,.75.27l.57-.1a17.06,17.06,0,0,0,7.56,9.44l-.24.57a1.3,1.3,0,0,1,.12.74,12.84,12.84,0,0,1-1.19,2.13,11,11,0,0,0-.7,1c-.05.1-.12.25-.17.35a1.32,1.32,0,1,0,2.37,1.12h0c0-.1.12-.24.16-.33a11,11,0,0,0,.38-1.2,9.17,9.17,0,0,1,1-2.36,1.06,1.06,0,0,1,.57-.28l.3-.54a17,17,0,0,0,12.1,0l.28.5a1,1,0,0,1,.67.41,12.23,12.23,0,0,1,.9,2.2,11,11,0,0,0,.38,1.2c0,.1.11.23.16.34A1.32,1.32,0,1,0,43,53l-.17-.35a10.84,10.84,0,0,0-.7-1,12.26,12.26,0,0,1-1.16-2.08,1,1,0,0,1,.1-.77,4.45,4.45,0,0,1-.22-.53,17.06,17.06,0,0,0,7.56-9.51l.56.1a1,1,0,0,1,.73-.27A12.23,12.23,0,0,1,52,39.2a10.89,10.89,0,0,0,1.18.45l.34.07h0a1.32,1.32,0,1,0,.58-2.55l-.38-.09a11.05,11.05,0,0,0-1.26-.1,12.27,12.27,0,0,1-2.35-.39,1.47,1.47,0,0,1-.57-.57L49,35.88a17,17,0,0,0-2.73-11.8l.46-.42a1,1,0,0,1,.25-.74A12.24,12.24,0,0,1,49,21.55,11,11,0,0,0,50,20.92l.29-.23a1.32,1.32,0,1,0-1.63-2.05l-.29.23a11,11,0,0,0-.87.92,12.28,12.28,0,0,1-1.77,1.6,1.46,1.46,0,0,1-.8.09l-.5.36A17.18,17.18,0,0,0,33.6,16.57c0-.17,0-.49,0-.59a1,1,0,0,1-.43-.66,12.25,12.25,0,0,1,.15-2.38,10.9,10.9,0,0,0,.18-1.25c0-.11,0-.26,0-.37A1.39,1.39,0,0,0,32.15,9.87Z"/>
    <path class="cls-3" d="M32.11,39.77a1.17,1.17,0,0,1,1.06.61h0l3.34,6q-.65.22-1.33.37a13.56,13.56,0,0,1-7.4-.38l3.33-6h0A1.16,1.16,0,0,1,32.11,39.77ZM26.39,37a1.16,1.16,0,0,1,1,1.61l0,0L24.84,45a13.57,13.57,0,0,1-5.45-6.82L26.16,37h0Zm11.47,0a1.13,1.13,0,0,1,.27,0h0L45,38.12A13.52,13.52,0,0,1,39.5,45l-2.65-6.4h0a1.16,1.16,0,0,1,1-1.61ZM31,31.15h2.3l1.43,1.78-.51,2.23-2.06,1-2.07-1-.51-2.23Zm12.7-4.76a13.75,13.75,0,0,1,2,8.52L39,33v0a1.16,1.16,0,0,1-.45-2h0Zm-23.14,0L25.71,31v0a1.16,1.16,0,0,1-.45,2v0l-6.6,1.9A13.5,13.5,0,0,1,20.56,26.39ZM33.8,20a13.62,13.62,0,0,1,7.85,3.79l-5.6,4h0a1.16,1.16,0,0,1-1.84-.88h0Zm-3.29,0-.39,6.88h0a1.16,1.16,0,0,1-1.83.89h0l-5.64-4a13.5,13.5,0,0,1,6.5-3.54A13.89,13.89,0,0,1,30.51,20ZM32.15,9.87a1.39,1.39,0,0,0-1.31,1.46s0,0,0,0,0,.24,0,.34A10.92,10.92,0,0,0,31,12.95a12.26,12.26,0,0,1,.15,2.38,1.43,1.43,0,0,1-.43.68l0,.55a17.09,17.09,0,0,0-2.37.36,16.86,16.86,0,0,0-8.57,4.89l-.47-.34a1,1,0,0,1-.78-.08,12.25,12.25,0,0,1-1.77-1.6,11,11,0,0,0-.86-.92l-.29-.23a1.56,1.56,0,0,0-.91-.34,1.26,1.26,0,0,0-1,.46A1.39,1.39,0,0,0,14,20.71h0l.27.22a11,11,0,0,0,1.09.64,12.22,12.22,0,0,1,2,1.37,1.46,1.46,0,0,1,.26.76l.42.38A17,17,0,0,0,15.3,35.91l-.55.16a1.82,1.82,0,0,1-.56.57,12.25,12.25,0,0,1-2.35.39,11,11,0,0,0-1.26.1l-.35.08h0a1.32,1.32,0,1,0,.58,2.55h0l.34-.08a11,11,0,0,0,1.18-.45,12.3,12.3,0,0,1,2.29-.67,1.45,1.45,0,0,1,.75.27l.57-.1a17.06,17.06,0,0,0,7.56,9.44l-.24.57a1.3,1.3,0,0,1,.12.74,12.84,12.84,0,0,1-1.19,2.13,11,11,0,0,0-.7,1c-.05.1-.12.25-.17.35a1.32,1.32,0,1,0,2.37,1.12h0c0-.1.12-.24.16-.33a11,11,0,0,0,.38-1.2,9.17,9.17,0,0,1,1-2.36,1.06,1.06,0,0,1,.57-.28l.3-.54a17,17,0,0,0,12.1,0l.28.5a1,1,0,0,1,.67.41,12.23,12.23,0,0,1,.9,2.2,11,11,0,0,0,.38,1.2c0,.1.11.23.16.34A1.32,1.32,0,1,0,43,53l-.17-.35a10.84,10.84,0,0,0-.7-1,12.26,12.26,0,0,1-1.16-2.08,1,1,0,0,1,.1-.77,4.45,4.45,0,0,1-.22-.53,17.06,17.06,0,0,0,7.56-9.51l.56.1a1,1,0,0,1,.73-.27A12.23,12.23,0,0,1,52,39.2a10.89,10.89,0,0,0,1.18.45l.34.07h0a1.32,1.32,0,1,0,.58-2.55l-.38-.09a11.05,11.05,0,0,0-1.26-.1,12.27,12.27,0,0,1-2.35-.39,1.47,1.47,0,0,1-.57-.57L49,35.88a17,17,0,0,0-2.73-11.8l.46-.42a1,1,0,0,1,.25-.74A12.24,12.24,0,0,1,49,21.55,11,11,0,0,0,50,20.92l.29-.23a1.32,1.32,0,1,0-1.63-2.05l-.29.23a11,11,0,0,0-.87.92,12.28,12.28,0,0,1-1.77,1.6,1.46,1.46,0,0,1-.8.09l-.5.36A17.18,17.18,0,0,0,33.6,16.57c0-.17,0-.49,0-.59a1,1,0,0,1-.43-.66,12.25,12.25,0,0,1,.15-2.38,10.9,10.9,0,0,0,.18-1.25c0-.11,0-.26,0-.37A1.39,1.39,0,0,0,32.15,9.87Z"/>
  </g>
</svg>
