<svg xmlns="http://www.w3.org/2000/svg" viewBox="0 0 400 140">
  <defs>
    <style>
      .cls-1 {
        fill: #80def9;
      }

      .cls-2, .cls-5, .cls-6 {
        fill: none;
      }

      .cls-2 {
        stroke: #2bc7f4;
      }

      .cls-2, .cls-3, .cls-5, .cls-6 {
        stroke-miterlimit: 10;
        stroke-width: 2px;
      }

      .cls-3 {
        fill: #fff;
      }

      .cls-3, .cls-6 {
        stroke: #556a8a;
      }

      .cls-4 {
        fill: #bad80a;
      }

      .cls-5 {
        stroke: #fff;
      }
    </style>
  </defs>
  <title>virtualization-windows-community</title>
  <g id="ICONS">
    <path class="cls-1" d="M264,17H166a4,4,0,0,0-4,4V95a4,4,0,0,0,4,4h65l18,18V99h15a4,4,0,0,0,4-4V21A4,4,0,0,0,264,17Z"/>
    <path class="cls-2" d="M264,17H166a4,4,0,0,0-4,4V95a4,4,0,0,0,4,4h65l18,18V99h15a4,4,0,0,0,4-4V21A4,4,0,0,0,264,17Z"/>
    <path class="cls-3" d="M187.89,42H115.77A5.79,5.79,0,0,0,110,47.79V100a6,6,0,0,0,5.77,6H123V121.7L138.85,106H195V47.79C195,44.6,191.06,42,187.89,42Z"/>
    <path class="cls-4" d="M197.68,81H157.32A4.32,4.32,0,0,0,153,85.29v30a4.78,4.78,0,0,0,4.41,4.71H162v11l11-11h24.68c2.38,0,4.32-2.36,4.32-4.71v-30A4.32,4.32,0,0,0,197.68,81Z"/>
    <g>
      <circle class="cls-5" cx="178.57" cy="96.37" r="7.25"/>
      <path class="cls-5" d="M167,115.21a11.6,11.6,0,0,1,23.19,0"/>
    </g>
    <line class="cls-2" x1="119.5" y1="57" x2="147.5" y2="57"/>
    <line class="cls-2" x1="119.52" y1="65" x2="177.12" y2="65"/>
    <line class="cls-2" x1="119.5" y1="75" x2="177.5" y2="75"/>
    <path class="cls-3" d="M283.15,35H237.85A4.84,4.84,0,0,0,233,39.8V73.4a4.68,4.68,0,0,0,4.85,4.6H243V91l12.65-13h27.5A4.68,4.68,0,0,0,288,73.4V39.8A4.84,4.84,0,0,0,283.15,35Z"/>
    <g>
      <circle class="cls-6" cx="261.88" cy="51.2" r="8.05"/>
      <path class="cls-6" d="M249,72.14a12.88,12.88,0,0,1,25.77,0"/>
    </g>
  </g>
</svg>
