<svg id="ICONS" xmlns="http://www.w3.org/2000/svg" viewBox="0 0 400 140">
  <defs>
    <style>
      .cls-1 {
        fill: #394d54;
      }

      .cls-1, .cls-6, .cls-7, .cls-8 {
        fill-rule: evenodd;
      }

      .cls-2 {
        fill: #00aada;
      }

      .cls-3 {
        fill: #24b8eb;
      }

      .cls-4 {
        fill: #008bb8;
      }

      .cls-5 {
        fill: #039bc6;
      }

      .cls-6 {
        fill: #00acd3;
      }

      .cls-7 {
        fill: #20c2ef;
      }

      .cls-10, .cls-8 {
        fill: #d4edf1;
      }

      .cls-9 {
        fill: #bfdbe0;
      }

      .cls-11 {
        fill: #0078d7;
      }

      .cls-12 {
        fill: #326ce5;
      }

      .cls-13 {
        fill: #fff;
      }

      .cls-14 {
        fill: none;
        stroke: #fff;
        stroke-width: 0.2px;
      }
    </style>
  </defs>
  <title>virtualization-containers-management-tools</title>
  <g>
    <path id="docker" class="cls-1" d="M102.75,98.6,108,94.08c.6-.52,1.25-1.05,1.85-1.59a4.67,4.67,0,0,0-1.95-1.29,4.66,4.66,0,0,0-6.23,4.7,4.14,4.14,0,0,0,.61,2.08,5.52,5.52,0,0,0,.46.63m2,1.43a5.53,5.53,0,0,0,2.72.1,6.15,6.15,0,0,1,2-.62h.07l.06,0a1.33,1.33,0,0,1,.64.57,1.13,1.13,0,0,1-.45,1.59l-.2.12a6.74,6.74,0,0,1-6.86-.09,6.36,6.36,0,0,1-2.49-2.48l-.14-.24a6.68,6.68,0,0,1,.38-7.49,6.47,6.47,0,0,1,2.15-1.95l.32-.19a6.66,6.66,0,0,1,6.54-.07,6.4,6.4,0,0,1,2.76,2.56l.12.2c.47.82-.14,1.53-.77,2s-1.47,1.25-2.18,1.85Zm16.8-11.34h.23A1.12,1.12,0,0,1,123,89.87c0,1-.94,1.23-1.75,1.23a4.24,4.24,0,0,0-2.81,1.36,4.5,4.5,0,0,0-1.31,3.32v5.72a1.09,1.09,0,0,1-1.09,1.18h-.19a1.09,1.09,0,0,1-1.09-1.18V95.45a6.64,6.64,0,0,1,3-5.55A6.5,6.5,0,0,1,121.58,88.69ZM92.12,92.75C93,91.83,94,90.91,94.89,90c.26-.25,1.24-1.32,1.63-1.32H97a1,1,0,0,1,.94,1V90c0,.4-.46.85-.72,1.13-.54.58-1.11,1.13-1.67,1.7l-2.86,2.9q1.84,1.85,3.68,3.71l1,1a2.59,2.59,0,0,1,.39.45,1,1,0,0,1,.17.53v.3a1.12,1.12,0,0,1-1.07,1h-.19c-.39,0-.83-.44-1.1-.7-.55-.52-1.08-1.07-1.63-1.6l-1.81-1.78v2.85A1.09,1.09,0,0,1,91,102.64h-.19a1.09,1.09,0,0,1-1.09-1.18v-16a1.09,1.09,0,0,1,1.09-1.18H91a1.09,1.09,0,0,1,1.09,1.18Zm-7.67-1.6a4.56,4.56,0,0,0-5.65,2.54,4.32,4.32,0,0,0-.42,1.9,4.56,4.56,0,0,0,2.87,4.31,5.38,5.38,0,0,0,2.23.38,5.86,5.86,0,0,0,2.09-.66l.1,0h.49a1,1,0,0,1,.94,1v.23c0,1.44-2.63,1.77-3.63,1.84a6.68,6.68,0,0,1-7.2-5.08A6.12,6.12,0,0,1,76,95.83v-.47a6.64,6.64,0,0,1,3.47-5.9,6.47,6.47,0,0,1,3.34-.91h.47a6,6,0,0,1,3.46,1.07l.09.06.05.09a1.25,1.25,0,0,1,.21.62v.23a1.07,1.07,0,0,1-1,1h-.18A5.33,5.33,0,0,1,84.45,91.15ZM62.9,95.64a4.55,4.55,0,0,0,2.4,4,4.38,4.38,0,0,0,2.33.63,4.52,4.52,0,0,0,4-2.4,4.4,4.4,0,0,0,.63-2.33,4.5,4.5,0,0,0-2.18-3.87,4.4,4.4,0,0,0-2.5-.76,4.49,4.49,0,0,0-4.26,2.78A4.33,4.33,0,0,0,62.9,95.64Zm4.45-7h.33a6.7,6.7,0,0,1,6.14,3.72,6.35,6.35,0,0,1,.81,3.09v.47a6.62,6.62,0,0,1-3.47,5.9,6.54,6.54,0,0,1-3.34.91h-.47a6.63,6.63,0,0,1-5.9-3.47,6.5,6.5,0,0,1-.91-3.34v-.47A6.64,6.64,0,0,1,64,89.5,6.47,6.47,0,0,1,67.35,88.59Zm-19.93,7a4.49,4.49,0,0,0,2.52,4.13,4.37,4.37,0,0,0,2.12.55,4.55,4.55,0,0,0,4.09-2.4,4.43,4.43,0,0,0,.63-2.33,4.52,4.52,0,0,0-2.05-3.79A4.41,4.41,0,0,0,52.1,91a4.49,4.49,0,0,0-4.26,2.78A4.34,4.34,0,0,0,47.42,95.64Zm9.36-5.28v-5a1.09,1.09,0,0,1,1.09-1.18h.19a1.09,1.09,0,0,1,1.09,1.18V95.87a6.62,6.62,0,0,1-3.47,5.9,6.52,6.52,0,0,1-3.34.91h-.47A6.63,6.63,0,0,1,46,99.21a6.5,6.5,0,0,1-.91-3.34v-.47a6.63,6.63,0,0,1,3.47-5.9,6.5,6.5,0,0,1,3.34-.91h.47A6.6,6.6,0,0,1,56.78,90.36Z"/>
    <path id="outline" class="cls-1" d="M90,51.23h7v7.13h3.53a15.3,15.3,0,0,0,4.85-.81,12.41,12.41,0,0,0,2.36-1.06A8.75,8.75,0,0,1,106.06,52c-.2-2.18.24-5,1.71-6.71l.73-.85.87.7a11.11,11.11,0,0,1,4.38,7.05,10.66,10.66,0,0,1,8.09.75l1,.55-.5,1c-2,3.85-6.1,5-10.14,4.84-6,15-19.19,22.16-35.13,22.16-8.24,0-15.79-3.08-20.1-10.39L56.87,71l-.63-1.28a20.23,20.23,0,0,1-1.61-10.26l.1-1.05h6V51.23h7v-7h14v-7H90Z"/>
    <g id="body_colors" data-name="body colors">
      <path class="cls-2" d="M112.59,53.87c.47-3.63-2.25-6.49-3.94-7.85-1.94,2.25-2.25,8.14.8,10.62-1.7,1.51-5.29,2.88-9,2.88H55.79a18.84,18.84,0,0,0,1.85,10.39l.51.93a17.23,17.23,0,0,0,1.05,1.58h0q2.76.18,5.08.12h0a24.93,24.93,0,0,0,7.42-1.08.54.54,0,0,1,.35,1l-.78.25h0a23.34,23.34,0,0,1-5.13.84c.12,0-.13,0-.13,0l-.23,0c-.81,0-1.68.05-2.57.05s-1.94,0-3-.07l0,0c3.72,4.19,9.55,6.7,16.85,6.7,15.45,0,28.56-6.85,34.36-22.23,4.12.42,8.07-.63,9.87-4.14A9.71,9.71,0,0,0,112.59,53.87Z"/>
      <path class="cls-3" d="M112.59,53.87c.47-3.63-2.25-6.49-3.94-7.85-1.94,2.25-2.25,8.14.8,10.62-1.7,1.51-5.29,2.88-9,2.88H58.44c-.18,5.87,2,10.33,5.85,13h0a24.93,24.93,0,0,0,7.42-1.08.54.54,0,0,1,.35,1l-.78.25h0A24.54,24.54,0,0,1,66,73.6l-.05,0c5.26,2.7,12.88,2.69,21.62-.67a60.77,60.77,0,0,0,25.29-19.15Z"/>
      <path class="cls-4" d="M55.87,64.18a17.88,17.88,0,0,0,1.77,5.73l.51.93a17.2,17.2,0,0,0,1.05,1.58q2.76.18,5.08.12a24.93,24.93,0,0,0,7.42-1.08.54.54,0,0,1,.35,1l-.78.25h0a24.53,24.53,0,0,1-5.25.85h-.26c-.81,0-1.67.07-2.56.07s-2,0-3-.07C63.88,77.78,69.74,80.3,77,80.3c13.23,0,24.74-5,31.42-16.11Z"/>
      <path class="cls-5" d="M58.84,64.18a13.43,13.43,0,0,0,5.45,8.36,24.93,24.93,0,0,0,7.42-1.08.54.54,0,0,1,.35,1l-.78.25h0a24.9,24.9,0,0,1-5.29.85c5.26,2.7,12.86,2.66,21.6-.7a57.1,57.1,0,0,0,14.94-8.7Z"/>
    </g>
    <g id="Containers">
      <path class="cls-6" d="M66.92,52.9h.48v5h-.48Zm-.92,0h.5v5H66Zm-.92,0h.5v5h-.5Zm-.92,0h.5v5h-.5Zm-.92,0h.5v5h-.5Zm-.9,0h.48v5h-.48Zm-.5-.5h6v6h-6Z"/>
      <path class="cls-6" d="M73.9,45.92h.48v5H73.9Zm-.92,0h.5v5H73Zm-.92,0h.5v5h-.5Zm-.92,0h.5v5h-.5Zm-.92,0h.5v5h-.5Zm-.9,0h.48v5h-.48Zm-.5-.5h6v6h-6Z"/>
      <path class="cls-7" d="M73.9,52.9h.48v5H73.9Zm-.92,0h.5v5H73Zm-.92,0h.5v5h-.5Zm-.92,0h.5v5h-.5Zm-.92,0h.5v5h-.5Zm-.9,0h.48v5h-.48Zm-.5-.5h6v6h-6Z"/>
      <path class="cls-6" d="M80.87,52.9h.48v5h-.48Zm-.92,0h.5v5H80Zm-.92,0h.5v5H79Zm-.92,0h.5v5h-.5Zm-.92,0h.5v5h-.5Zm-.9,0h.48v5h-.48Zm-.5-.5h6v6h-6Z"/>
      <path class="cls-7" d="M80.87,45.92h.48v5h-.48Zm-.92,0h.5v5H80Zm-.92,0h.5v5H79Zm-.92,0h.5v5h-.5Zm-.92,0h.5v5h-.5Zm-.9,0h.48v5h-.48Zm-.5-.5h6v6h-6Z"/>
      <path class="cls-7" d="M87.85,52.9h.48v5h-.48Zm-.92,0h.5v5h-.5Zm-.92,0h.5v5H86Zm-.92,0h.5v5h-.5Zm-.92,0h.5v5h-.5Zm-.9,0h.48v5h-.48Zm-.5-.5h6v6h-6Z"/>
      <path class="cls-6" d="M87.85,45.92h.48v5h-.48Zm-.92,0h.5v5h-.5Zm-.92,0h.5v5H86Zm-.92,0h.5v5h-.5Zm-.92,0h.5v5h-.5Zm-.9,0h.48v5h-.48Zm-.5-.5h6v6h-6Z"/>
      <path class="cls-7" d="M87.85,38.95h.48v5h-.48Zm-.92,0h.5v5h-.5Zm-.92,0h.5v5H86Zm-.92,0h.5v5h-.5Zm-.92,0h.5v5h-.5Zm-.9,0h.48v5h-.48Zm-.5-.5h6v6h-6Z"/>
      <path class="cls-6" d="M94.83,52.9h.48v5h-.48Zm-.92,0h.5v5h-.5Zm-.92,0h.5v5H93Zm-.92,0h.5v5h-.5Zm-.92,0h.5v5h-.5Zm-.9,0h.48v5h-.48Zm-.5-.5h6v6h-6Z"/>
    </g>
    <path class="cls-8" d="M74.5,68.24a1.67,1.67,0,1,1-1.67,1.67,1.67,1.67,0,0,1,1.67-1.67"/>
    <path class="cls-1" d="M74.5,68.71a1.19,1.19,0,0,1,.43.08.49.49,0,1,0,.67.66,1.19,1.19,0,1,1-1.1-.74"/>
    <path class="cls-1" d="M45,64.79h77.59c-1.69-.43-5.35-1-4.74-3.22-3.07,3.55-10.48,2.49-12.35.74-2.08,3-14.2,1.87-15-.48-2.61,3.06-10.7,3.06-13.31,0-.85,2.35-13,3.5-15,.48-1.87,1.75-9.28,2.81-12.35-.74.6,2.21-3.05,2.79-4.74,3.22"/>
    <path class="cls-9" d="M78.94,80.26a14.69,14.69,0,0,1-7.66-7.53,25.58,25.58,0,0,1-5.52.84q-1.21.07-2.55.07-1.54,0-3.25-.09c3.79,3.79,8.45,6.7,17.08,6.75Q78,80.3,78.94,80.26Z"/>
    <path class="cls-10" d="M72.81,75.41a14.47,14.47,0,0,1-1.53-2.68,25.58,25.58,0,0,1-5.52.84A17.58,17.58,0,0,0,72.81,75.41Z"/>
  </g>
  <g id="Layer_1" data-name="Layer 1">
    <g id="Azure">
      <g>
        <path class="cls-11" d="M207.3,73.25a5,5,0,0,0-4.5,2.9H174.2a8.8,8.8,0,1,1,0-17.6h4a14,14,0,0,1,.9-2.9c.2-.3.3-.7.5-1a11.6,11.6,0,0,1,10.1-5.8,11.74,11.74,0,0,1,9.4,4.7,17.06,17.06,0,0,1,3.8-1.3,15.56,15.56,0,0,0-27.6,2.4v.1h0v-.1h-1.1a12.87,12.87,0,0,0-12.7,12.8,12.72,12.72,0,0,0,12.7,12.7h28.7a5,5,0,0,0,4.5,2.9,4.91,4.91,0,0,0,4.9-4.9A5.06,5.06,0,0,0,207.3,73.25Z"/>
        <path class="cls-11" d="M222.5,95a16.23,16.23,0,0,0,16-15.9A15.6,15.6,0,0,0,223,63.55a17.54,17.54,0,0,0-32.8,4,13.64,13.64,0,0,0-9.8,5.7h20.9a7.64,7.64,0,0,1,6.1-2.9A7.8,7.8,0,1,1,201.3,83H178c.9,6.6,6.2,12,13.1,12Z"/>
      </g>
    </g>
  </g>
  <g>
    <path class="cls-12" d="M320.1,34.65a4.88,4.88,0,0,0-1.86.47l-25.33,12.1a4.89,4.89,0,0,0-2.62,3.26L284,77.68a4.83,4.83,0,0,0,.66,3.68q.13.2.28.38l17.54,21.8a4.93,4.93,0,0,0,3.79,1.81h28.12a4.94,4.94,0,0,0,3.79-1.8l17.53-21.81a4.85,4.85,0,0,0,.94-4.07l-6.26-27.19a4.89,4.89,0,0,0-2.62-3.26l-25.34-12.1A4.89,4.89,0,0,0,320.1,34.65Z"/>
    <path class="cls-13" d="M320.31,78.48a1.35,1.35,0,0,1,1.22.7h0l3.86,7q-.75.25-1.54.43a15.68,15.68,0,0,1-8.56-.44l3.85-7h0A1.34,1.34,0,0,1,320.31,78.48Zm-6.61-3.21a1.34,1.34,0,0,1,1.21,1.86l0,0-3,7.33a15.7,15.7,0,0,1-6.3-7.89l7.83-1.33v0Zm13.26,0a1.31,1.31,0,0,1,.31,0v0l7.9,1.33a15.64,15.64,0,0,1-6.32,7.94l-3.07-7.4h0A1.34,1.34,0,0,1,327,75.24Zm-7.82-6.49h2.44l1.52,1.9L322.54,73l-2.19,1.05L318.16,73l-.54-2.37ZM333.72,63A15.9,15.9,0,0,1,336,72.88l-7.67-2.21v0a1.34,1.34,0,0,1-.52-2.3v0ZM307,63l6,5.33v0a1.34,1.34,0,0,1-.52,2.3v0l-7.63,2.2A15.62,15.62,0,0,1,307,63Zm15.31-7.35A15.75,15.75,0,0,1,331.34,60l-6.48,4.59h0a1.34,1.34,0,0,1-2.13-1h0Zm-3.8,0-.45,8,0,0a1.34,1.34,0,0,1-2.12,1h0L309.32,60a15.62,15.62,0,0,1,7.52-4.1A16.07,16.07,0,0,1,318.46,55.67Zm1.9-11.76a1.61,1.61,0,0,0-1.52,1.68s0,0,0,0,0,.28,0,.39a12.63,12.63,0,0,0,.21,1.44,14.18,14.18,0,0,1,.17,2.75,1.65,1.65,0,0,1-.49.78l0,.64a19.77,19.77,0,0,0-2.74.42A19.51,19.51,0,0,0,306,57.72l-.55-.39a1.2,1.2,0,0,1-.9-.09,14.17,14.17,0,0,1-2-1.85,12.73,12.73,0,0,0-1-1.06l-.34-.27a1.8,1.8,0,0,0-1.06-.4,1.46,1.46,0,0,0-1.21.53,1.61,1.61,0,0,0,.37,2.24l0,0,.31.25a12.68,12.68,0,0,0,1.26.74A14.13,14.13,0,0,1,303.17,59a1.68,1.68,0,0,1,.3.87l.49.43A19.62,19.62,0,0,0,300.86,74l-.63.18a2.1,2.1,0,0,1-.65.66,14.17,14.17,0,0,1-2.72.45,12.67,12.67,0,0,0-1.46.12l-.41.09h0a1.52,1.52,0,1,0,.67,3h.05l.39-.09a12.71,12.71,0,0,0,1.36-.52,14.23,14.23,0,0,1,2.64-.78,1.68,1.68,0,0,1,.87.31l.66-.11a19.73,19.73,0,0,0,8.74,10.92l-.28.66a1.5,1.5,0,0,1,.14.86,14.86,14.86,0,0,1-1.37,2.47,12.69,12.69,0,0,0-.81,1.21c-.06.11-.14.29-.19.41a1.52,1.52,0,1,0,2.74,1.3h0c.06-.12.14-.27.19-.39a12.73,12.73,0,0,0,.44-1.39,10.6,10.6,0,0,1,1.17-2.72,1.23,1.23,0,0,1,.65-.32l.34-.62a19.62,19.62,0,0,0,14,0l.32.58a1.2,1.2,0,0,1,.77.47,14.14,14.14,0,0,1,1,2.55,12.69,12.69,0,0,0,.44,1.39c0,.11.13.27.19.39a1.52,1.52,0,1,0,2.74-1.3c-.06-.12-.14-.29-.2-.41a12.54,12.54,0,0,0-.81-1.21,14.18,14.18,0,0,1-1.34-2.41,1.19,1.19,0,0,1,.12-.89,5.15,5.15,0,0,1-.25-.61,19.73,19.73,0,0,0,8.74-11l.65.11a1.2,1.2,0,0,1,.85-.31,14.14,14.14,0,0,1,2.64.78,12.59,12.59,0,0,0,1.36.52l.39.08h.05a1.52,1.52,0,1,0,.67-3l-.44-.1a12.78,12.78,0,0,0-1.45-.12,14.2,14.2,0,0,1-2.72-.45,1.7,1.7,0,0,1-.65-.66l-.61-.18a19.7,19.7,0,0,0-3.16-13.65l.54-.48a1.2,1.2,0,0,1,.29-.86,14.16,14.16,0,0,1,2.25-1.58,12.72,12.72,0,0,0,1.26-.74l.33-.27A1.52,1.52,0,1,0,339.49,54l-.34.27a12.74,12.74,0,0,0-1,1.06,14.2,14.2,0,0,1-2,1.85,1.69,1.69,0,0,1-.92.1l-.58.41A19.87,19.87,0,0,0,322,51.65c0-.2,0-.57,0-.68a1.2,1.2,0,0,1-.5-.76,14.17,14.17,0,0,1,.17-2.75,12.6,12.6,0,0,0,.21-1.44c0-.12,0-.3,0-.43A1.61,1.61,0,0,0,320.35,43.91Z"/>
    <path class="cls-14" d="M320.31,78.48a1.35,1.35,0,0,1,1.22.7h0l3.86,7q-.75.25-1.54.43a15.68,15.68,0,0,1-8.56-.44l3.85-7h0A1.34,1.34,0,0,1,320.31,78.48Zm-6.61-3.21a1.34,1.34,0,0,1,1.21,1.86l0,0-3,7.33a15.7,15.7,0,0,1-6.3-7.89l7.83-1.33v0Zm13.26,0a1.31,1.31,0,0,1,.31,0v0l7.9,1.33a15.64,15.64,0,0,1-6.32,7.94l-3.07-7.4h0A1.34,1.34,0,0,1,327,75.24Zm-7.82-6.49h2.44l1.52,1.9L322.54,73l-2.19,1.05L318.16,73l-.54-2.37ZM333.72,63A15.9,15.9,0,0,1,336,72.88l-7.67-2.21v0a1.34,1.34,0,0,1-.52-2.3v0ZM307,63l6,5.33v0a1.34,1.34,0,0,1-.52,2.3v0l-7.63,2.2A15.62,15.62,0,0,1,307,63Zm15.31-7.35A15.75,15.75,0,0,1,331.34,60l-6.48,4.59h0a1.34,1.34,0,0,1-2.13-1h0Zm-3.8,0-.45,8,0,0a1.34,1.34,0,0,1-2.12,1h0L309.32,60a15.62,15.62,0,0,1,7.52-4.1A16.07,16.07,0,0,1,318.46,55.67Zm1.9-11.76a1.61,1.61,0,0,0-1.52,1.68s0,0,0,0,0,.28,0,.39a12.63,12.63,0,0,0,.21,1.44,14.18,14.18,0,0,1,.17,2.75,1.65,1.65,0,0,1-.49.78l0,.64a19.77,19.77,0,0,0-2.74.42A19.51,19.51,0,0,0,306,57.72l-.55-.39a1.2,1.2,0,0,1-.9-.09,14.17,14.17,0,0,1-2-1.85,12.73,12.73,0,0,0-1-1.06l-.34-.27a1.8,1.8,0,0,0-1.06-.4,1.46,1.46,0,0,0-1.21.53,1.61,1.61,0,0,0,.37,2.24l0,0,.31.25a12.68,12.68,0,0,0,1.26.74A14.13,14.13,0,0,1,303.17,59a1.68,1.68,0,0,1,.3.87l.49.43A19.62,19.62,0,0,0,300.86,74l-.63.18a2.1,2.1,0,0,1-.65.66,14.17,14.17,0,0,1-2.72.45,12.67,12.67,0,0,0-1.46.12l-.41.09h0a1.52,1.52,0,1,0,.67,3h.05l.39-.09a12.71,12.71,0,0,0,1.36-.52,14.23,14.23,0,0,1,2.64-.78,1.68,1.68,0,0,1,.87.31l.66-.11a19.73,19.73,0,0,0,8.74,10.92l-.28.66a1.5,1.5,0,0,1,.14.86,14.86,14.86,0,0,1-1.37,2.47,12.69,12.69,0,0,0-.81,1.21c-.06.11-.14.29-.19.41a1.52,1.52,0,1,0,2.74,1.3h0c.06-.12.14-.27.19-.39a12.73,12.73,0,0,0,.44-1.39,10.6,10.6,0,0,1,1.17-2.72,1.23,1.23,0,0,1,.65-.32l.34-.62a19.62,19.62,0,0,0,14,0l.32.58a1.2,1.2,0,0,1,.77.47,14.14,14.14,0,0,1,1,2.55,12.69,12.69,0,0,0,.44,1.39c0,.11.13.27.19.39a1.52,1.52,0,1,0,2.74-1.3c-.06-.12-.14-.29-.2-.41a12.54,12.54,0,0,0-.81-1.21,14.18,14.18,0,0,1-1.34-2.41,1.19,1.19,0,0,1,.12-.89,5.15,5.15,0,0,1-.25-.61,19.73,19.73,0,0,0,8.74-11l.65.11a1.2,1.2,0,0,1,.85-.31,14.14,14.14,0,0,1,2.64.78,12.59,12.59,0,0,0,1.36.52l.39.08h.05a1.52,1.52,0,1,0,.67-3l-.44-.1a12.78,12.78,0,0,0-1.45-.12,14.2,14.2,0,0,1-2.72-.45,1.7,1.7,0,0,1-.65-.66l-.61-.18a19.7,19.7,0,0,0-3.16-13.65l.54-.48a1.2,1.2,0,0,1,.29-.86,14.16,14.16,0,0,1,2.25-1.58,12.72,12.72,0,0,0,1.26-.74l.33-.27A1.52,1.52,0,1,0,339.49,54l-.34.27a12.74,12.74,0,0,0-1,1.06,14.2,14.2,0,0,1-2,1.85,1.69,1.69,0,0,1-.92.1l-.58.41A19.87,19.87,0,0,0,322,51.65c0-.2,0-.57,0-.68a1.2,1.2,0,0,1-.5-.76,14.17,14.17,0,0,1,.17-2.75,12.6,12.6,0,0,0,.21-1.44c0-.12,0-.3,0-.43A1.61,1.61,0,0,0,320.35,43.91Z"/>
  </g>
</svg>
