<svg id="ICONS" xmlns="http://www.w3.org/2000/svg" viewBox="0 0 400 140">
  <defs>
    <style>
      .cls-1 {
        fill: none;
      }

      .cls-2 {
        fill: #2bc7f4;
      }

      .cls-3 {
        fill: #556a8a;
      }

      .cls-4 {
        fill: #939598;
      }
    </style>
  </defs>
  <title>virtualization-containers-samples</title>
  <g>
    <rect class="cls-1" x="62" y="45" width="93" height="90"/>
    <g>
      <polygon class="cls-2" points="104.48 88.84 118.56 80.18 103.94 71.26 89.86 79.85 104.48 88.84"/>
      <polygon class="cls-3" points="104 89.98 89 81.1 89 97.93 104 106.81 104 89.98"/>
      <polygon class="cls-2" points="119.68 61.66 105.2 70.49 119.82 79.41 134.63 70.29 119.68 61.66"/>
      <polygon class="cls-3" points="88 80.29 73 71.04 73 71.07 73 87.84 88 97.12 88 80.29"/>
      <polygon class="cls-4" points="121 97.12 136 87.84 136 71.07 136 71.04 121 80.29 121 97.12"/>
      <polygon class="cls-2" points="74.33 70.29 88.61 79.08 102.68 70.49 88.72 61.98 74.33 70.29"/>
      <polygon class="cls-3" points="104 125.27 104 108.35 89 99.47 89 116.93 104 125.27"/>
      <polygon class="cls-2" points="103.94 69.72 118.39 60.91 104.48 52.87 90.02 61.23 103.94 69.72"/>
      <polygon class="cls-4" points="121 98.67 121 116.17 136 107.46 136 89.38 121 98.67"/>
      <polygon class="cls-3" points="88 98.67 73 89.38 73 107.46 88 116.17 88 98.67"/>
      <polygon class="cls-4" points="105 89.98 105 106.81 120 97.93 120 81.1 105 89.98"/>
      <polygon class="cls-4" points="120 99.47 105 108.35 105 125.27 120 116.93 120 99.47"/>
    </g>
  </g>
  <g>
    <rect class="cls-1" x="250" y="45" width="93" height="90"/>
    <g>
      <polygon class="cls-3" points="292 89.98 277 81.1 277 97.93 292 106.81 292 89.98"/>
      <polygon class="cls-3" points="276 80.29 261 71.04 261 71.07 261 87.84 276 97.12 276 80.29"/>
      <polygon class="cls-4" points="309 97.12 324 87.84 324 71.07 324 71.04 309 80.29 309 97.12"/>
      <polygon class="cls-3" points="292 125.27 292 108.35 277 99.47 277 116.93 292 125.27"/>
      <polygon class="cls-4" points="309 98.67 309 116.17 324 107.46 324 89.38 309 98.67"/>
      <polygon class="cls-3" points="276 98.67 261 89.38 261 107.46 276 116.17 276 98.67"/>
      <polygon class="cls-4" points="293 89.98 293 106.81 308 97.93 308 81.1 293 89.98"/>
      <polygon class="cls-2" points="292.48 69.84 306.56 61.18 291.94 52.26 277.86 60.85 292.48 69.84"/>
      <polygon class="cls-3" points="292 70.98 277 62.1 277 78.93 292 87.81 292 70.98"/>
      <polygon class="cls-2" points="307.68 42.66 293.2 51.49 307.82 60.41 322.63 51.29 307.68 42.66"/>
      <polygon class="cls-3" points="276 61.29 261 52.04 261 52.07 261 68.84 276 78.12 276 61.29"/>
      <polygon class="cls-4" points="309 78.12 324 68.84 324 52.07 324 52.04 309 61.29 309 78.12"/>
      <polygon class="cls-2" points="262.33 51.29 276.61 60.08 290.68 51.49 276.72 42.98 262.33 51.29"/>
      <polygon class="cls-2" points="291.94 50.73 306.39 41.91 292.48 33.87 278.02 42.23 291.94 50.73"/>
      <polygon class="cls-4" points="293 70.98 293 87.81 308 78.93 308 62.1 293 70.98"/>
      <polygon class="cls-4" points="308 99.47 293 108.35 293 125.27 308 116.93 308 99.47"/>
    </g>
  </g>
  <g>
    <rect class="cls-1" x="156" y="45" width="93" height="90"/>
    <g>
      <polygon class="cls-3" points="198 89.98 183 81.1 183 97.93 198 106.81 198 89.98"/>
      <polygon class="cls-3" points="182 80.29 167 71.04 167 71.07 167 87.84 182 97.12 182 80.29"/>
      <polygon class="cls-4" points="215 97.12 230 87.84 230 71.07 230 71.04 215 80.29 215 97.12"/>
      <polygon class="cls-3" points="198 125.27 198 108.35 183 99.47 183 116.93 198 125.27"/>
      <polygon class="cls-4" points="215 98.67 215 116.17 230 107.46 230 89.38 215 98.67"/>
      <polygon class="cls-3" points="182 98.67 167 89.38 167 107.46 182 116.17 182 98.67"/>
      <polygon class="cls-4" points="199 89.98 199 106.81 214 97.93 214 81.1 199 89.98"/>
      <polygon class="cls-4" points="214 99.47 199 108.35 199 125.27 214 116.93 214 99.47"/>
    </g>
  </g>
  <g>
    <polygon class="cls-2" points="198.48 51.84 212.56 43.18 197.94 34.26 183.86 42.85 198.48 51.84"/>
    <polygon class="cls-3" points="198 52.98 183 44.1 183 60.93 198 69.81 198 52.98"/>
    <polygon class="cls-2" points="213.68 24.66 199.2 33.49 213.82 42.41 228.63 33.29 213.68 24.66"/>
    <polygon class="cls-3" points="182 43.29 167 34.04 167 34.07 167 50.84 182 60.12 182 43.29"/>
    <polygon class="cls-4" points="215 60.12 230 50.84 230 34.07 230 34.04 215 43.29 215 60.12"/>
    <polygon class="cls-2" points="168.33 33.29 182.61 42.08 196.68 33.49 182.72 24.98 168.33 33.29"/>
    <polygon class="cls-3" points="198 88.27 198 71.35 183 62.47 183 79.93 198 88.27"/>
    <polygon class="cls-2" points="197.94 32.73 212.39 23.91 198.48 15.87 184.02 24.23 197.94 32.73"/>
    <polygon class="cls-4" points="215 61.66 215 79.17 230 70.46 230 52.38 215 61.66"/>
    <polygon class="cls-3" points="182 61.66 167 52.38 167 70.46 182 79.17 182 61.66"/>
    <polygon class="cls-4" points="199 52.98 199 69.81 214 60.93 214 44.1 199 52.98"/>
    <polygon class="cls-4" points="214 62.47 199 71.35 199 88.27 214 79.93 214 62.47"/>
  </g>
</svg>
